<?xml version="1.0" encoding="utf-8"?>
<!-- Generator: Adobe Illustrator 16.0.0, SVG Export Plug-In . SVG Version: 6.00 Build 0)  -->
<svg version="1.1" id="Layer_1" xmlns="http://www.w3.org/2000/svg" xmlns:xlink="http://www.w3.org/1999/xlink" x="0px" y="0px"
	 width="198.143px" height="45px" viewBox="0 0 198.143 45" enable-background="new 0 0 198.143 45" xml:space="preserve">
<g>
	<g>
		<g>
			<path fill="#FFFFFF" d="M70.014,12.384l-7.34,10.107v10.469c0,0.286-0.1,0.521-0.297,0.707c-0.197,0.187-0.439,0.281-0.725,0.281
				s-0.521-0.095-0.708-0.281c-0.186-0.186-0.28-0.421-0.28-0.707V22.523L53.29,12.451c-0.175-0.198-0.264-0.429-0.264-0.691
				c0-0.265,0.111-0.495,0.33-0.692c0.219-0.198,0.462-0.297,0.724-0.297c0.351,0,0.625,0.154,0.824,0.462l6.814,9.283l6.649-9.283
				c0.242-0.308,0.527-0.462,0.856-0.462c0.264,0,0.494,0.105,0.692,0.313c0.197,0.208,0.295,0.434,0.295,0.676
				C70.212,11.914,70.146,12.122,70.014,12.384z"/>
			<path fill="#FFFFFF" d="M111.988,11.184c0.186,0.187,0.279,0.423,0.279,0.707v13.63c0,1.603-0.384,3.073-1.152,4.411
				c-0.768,1.34-1.811,2.394-3.127,3.161c-1.317,0.768-2.766,1.151-4.346,1.151c-1.603,0-3.062-0.384-4.379-1.151
				c-1.317-0.768-2.359-1.821-3.128-3.161c-0.767-1.338-1.152-2.809-1.152-4.411v-13.63c0-0.284,0.093-0.52,0.28-0.707
				c0.187-0.187,0.446-0.28,0.774-0.28c0.263,0,0.494,0.093,0.691,0.28c0.198,0.187,0.297,0.423,0.297,0.707v13.63
				c0,1.229,0.297,2.359,0.889,3.39c0.592,1.033,1.4,1.851,2.42,2.455c1.02,0.604,2.125,0.904,3.309,0.904
				c1.207,0,2.321-0.301,3.34-0.904c1.021-0.604,1.833-1.422,2.438-2.455c0.603-1.03,0.905-2.16,0.905-3.39v-13.63
				c0-0.284,0.086-0.52,0.262-0.707s0.407-0.28,0.691-0.28C111.564,10.903,111.8,10.997,111.988,11.184z"/>
			<path fill="#FFFFFF" d="M134.734,11.167c0.187,0.176,0.278,0.407,0.278,0.691c0,0.287-0.092,0.511-0.278,0.676
				c-0.188,0.164-0.425,0.246-0.709,0.246h-6.814v20.182c0,0.286-0.1,0.521-0.297,0.707c-0.196,0.187-0.438,0.281-0.724,0.281
				c-0.309,0-0.556-0.095-0.742-0.281c-0.186-0.186-0.279-0.421-0.279-0.707V12.779h-6.813c-0.286,0-0.521-0.086-0.709-0.262
				c-0.186-0.176-0.279-0.405-0.279-0.692c0-0.262,0.094-0.482,0.279-0.658c0.188-0.175,0.423-0.263,0.709-0.263h15.67
				C134.309,10.903,134.546,10.991,134.734,11.167z"/>
			<path fill="#FFFFFF" d="M153.81,32.303c0.188,0.197,0.281,0.428,0.281,0.691c0,0.285-0.094,0.515-0.281,0.691
				c-0.186,0.175-0.422,0.264-0.706,0.264h-12.083c-0.285,0-0.521-0.095-0.708-0.281c-0.187-0.186-0.28-0.421-0.28-0.707v-21.07
				c0-0.284,0.094-0.52,0.28-0.707s0.423-0.28,0.708-0.28h12.083c0.284,0,0.521,0.093,0.706,0.28
				c0.188,0.187,0.281,0.423,0.281,0.707c0,0.286-0.094,0.517-0.281,0.691c-0.186,0.175-0.422,0.265-0.706,0.265h-10.997v8.263
				h6.664c0.285,0,0.521,0.093,0.707,0.279s0.281,0.423,0.281,0.708c0,0.287-0.095,0.516-0.281,0.692
				c-0.187,0.175-0.422,0.262-0.707,0.262h-6.664v8.955h10.997C153.388,32.006,153.625,32.105,153.81,32.303z"/>
			<path fill="#FFFFFF" d="M89.655,32.303c0.187,0.197,0.281,0.428,0.281,0.691c0,0.285-0.095,0.515-0.281,0.691
				c-0.187,0.175-0.423,0.264-0.708,0.264H76.864c-0.285,0-0.522-0.095-0.707-0.281c-0.188-0.186-0.28-0.421-0.28-0.707v-21.07
				c0-0.284,0.092-0.52,0.28-0.707c0.185-0.187,0.421-0.28,0.707-0.28h12.082c0.285,0,0.521,0.093,0.708,0.28
				c0.187,0.187,0.281,0.423,0.281,0.707c0,0.286-0.095,0.517-0.281,0.691c-0.187,0.175-0.423,0.265-0.708,0.265H77.95v8.263h6.664
				c0.285,0,0.522,0.093,0.708,0.279c0.187,0.187,0.282,0.423,0.282,0.708c0,0.287-0.095,0.516-0.282,0.692
				c-0.186,0.175-0.423,0.262-0.708,0.262H77.95v8.955h10.996C89.231,32.006,89.468,32.105,89.655,32.303z"/>
			<path fill="#FFFFFF" d="M197.863,11.184c0.186,0.187,0.28,0.433,0.28,0.741v21.003c-0.021,0.309-0.132,0.555-0.329,0.74
				c-0.197,0.187-0.439,0.281-0.725,0.281s-0.527-0.1-0.725-0.297s-0.296-0.438-0.296-0.725v-9.81h-13.366v9.81
				c-0.022,0.287-0.131,0.527-0.329,0.725c-0.197,0.197-0.439,0.297-0.724,0.297c-0.307,0-0.555-0.095-0.742-0.281
				c-0.186-0.186-0.279-0.432-0.279-0.74V11.925c0-0.308,0.1-0.554,0.297-0.741s0.449-0.28,0.758-0.28
				c0.283,0,0.525,0.099,0.725,0.297c0.197,0.198,0.295,0.438,0.295,0.725v9.283h13.366v-9.283c0-0.286,0.104-0.527,0.313-0.725
				c0.21-0.198,0.456-0.297,0.741-0.297C197.43,10.903,197.676,10.997,197.863,11.184z"/>
			<path fill="#FFFFFF" d="M168.677,34.369h-3.26c-4.064,0-7.611-3.306-7.611-7.369v-0.414v-8.118V18.04
				c0-4.063,3.307-7.371,7.372-7.371l3.552,0.006c3.764,0.391,6.601,3.542,6.601,7.331c0,0.567-0.46,1.03-1.029,1.03
				s-1.03-0.462-1.03-1.03c0-2.713-2.018-4.972-4.703-5.277h-3.39c-2.929,0-5.311,2.382-5.311,5.311v0.414l-0.001,8.119V27
				c0,2.928,2.621,5.311,5.551,5.311h3.15c2.864-0.071,4.703-2.563,4.703-5.276c0-0.567,0.461-1.029,1.03-1.029
				s1.029,0.462,1.029,1.029c0,3.789-2.837,6.939-6.601,7.331L168.677,34.369z"/>
		</g>
	</g>
	<path fill="#FFFFFF" d="M19.9,44.906c-0.37,0-0.712-0.197-0.895-0.519l-5.902-10.311H1.032c-0.365,0-0.703-0.192-0.889-0.507
		c-0.185-0.314-0.191-0.703-0.015-1.022l5.714-10.389L0.14,12.382c-0.186-0.319-0.188-0.714-0.003-1.034
		c0.184-0.321,0.525-0.518,0.895-0.518h12.07l5.902-10.31C19.188,0.198,19.53,0,19.9,0c0.001,0,0.001,0,0.001,0
		c0.371,0,0.712,0.199,0.896,0.521l5.869,10.308h12.07c0.37,0,0.711,0.198,0.895,0.518c0.184,0.321,0.183,0.715-0.003,1.034
		l-5.748,9.847l5.711,10.23c0.115,0.166,0.183,0.369,0.183,0.586c0,0.57-0.462,1.032-1.032,1.032c-0.001,0-0.003,0-0.005,0h-12.07
		l-5.869,10.308c-0.183,0.322-0.525,0.521-0.896,0.521C19.901,44.906,19.901,44.906,19.9,44.906z M2.778,32.013h10.901
		c0.371,0,0.734,0.198,0.918,0.521l5.3,9.26l5.272-9.258c0.184-0.322,0.526-0.522,0.897-0.522h10.911L31.79,22.72
		c-0.178-0.318-0.174-0.708,0.01-1.023l5.138-8.803h-10.85c-0.372,0-0.735-0.199-0.918-0.521l-5.272-9.258l-5.3,9.261
		c-0.184,0.32-0.526,0.519-0.896,0.519H2.828l5.091,8.731c0.183,0.313,0.188,0.7,0.013,1.017L2.778,32.013z"/>
	<path fill="#FFFFFF" d="M19.872,45c-0.57,0-1.032-0.462-1.032-1.032V22.783c0-0.57,0.462-1.032,1.032-1.032
		c0.57,0,1.032,0.462,1.032,1.032v21.185C20.904,44.538,20.442,45,19.872,45z"/>
	<path fill="#FFFFFF" d="M19.857,23.516c-0.361,0-0.712-0.19-0.901-0.528c-0.278-0.498-0.101-1.126,0.396-1.405l18.259-10.223
		c0.498-0.279,1.126-0.101,1.405,0.396c0.278,0.497,0.102,1.126-0.396,1.404L20.361,23.384
		C20.201,23.474,20.028,23.516,19.857,23.516z"/>
	<path fill="#FFFFFF" d="M19.855,23.516c-0.171,0-0.344-0.042-0.503-0.132L1.093,13.16c-0.498-0.278-0.675-0.907-0.396-1.404
		c0.279-0.498,0.908-0.674,1.404-0.396l18.26,10.223c0.497,0.279,0.674,0.908,0.396,1.405
		C20.567,23.326,20.217,23.516,19.855,23.516z"/>
</g>
</svg>
